<svg  viewBox="0 0 57 57" fill="none" xmlns="http://www.w3.org/2000/svg">
<rect width="57" height="57" rx="12" fill="#F4F4F4"/>
<path d="M33.0066 23.8188L26.7503 30.0897L24.3441 27.6834C24.2133 27.5308 24.0525 27.4068 23.8715 27.3192C23.6906 27.2317 23.4935 27.1825 23.2927 27.1748C23.0919 27.167 22.8916 27.2008 22.7044 27.2742C22.5173 27.3475 22.3473 27.4587 22.2052 27.6008C22.0631 27.7429 21.9519 27.9129 21.8786 28.1C21.8052 28.2872 21.7714 28.4874 21.7792 28.6883C21.7869 28.8891 21.8361 29.0862 21.9236 29.2671C22.0112 29.448 22.1352 29.6089 22.2878 29.7397L25.7149 33.1813C25.8512 33.3165 26.0128 33.4234 26.1905 33.496C26.3681 33.5686 26.5584 33.6054 26.7503 33.6042C27.1329 33.6026 27.4995 33.4508 27.7712 33.1813L35.0628 25.8897C35.1995 25.7541 35.308 25.5928 35.382 25.4151C35.4561 25.2374 35.4942 25.0468 35.4942 24.8542C35.4942 24.6617 35.4561 24.4711 35.382 24.2934C35.308 24.1157 35.1995 23.9544 35.0628 23.8188C34.7896 23.5472 34.42 23.3948 34.0347 23.3948C33.6494 23.3948 33.2798 23.5472 33.0066 23.8188ZM28.5003 13.9167C25.616 13.9167 22.7965 14.772 20.3983 16.3745C18 17.9769 16.1309 20.2545 15.0271 22.9193C13.9233 25.584 13.6345 28.5163 14.1972 31.3451C14.7599 34.174 16.1488 36.7725 18.1884 38.8121C20.2279 40.8516 22.8264 42.2405 25.6553 42.8032C28.4842 43.3659 31.4164 43.0771 34.0811 41.9733C36.7459 40.8695 39.0235 39.0004 40.6259 36.6021C42.2284 34.2039 43.0837 31.3844 43.0837 28.5001C43.0837 26.585 42.7065 24.6886 41.9736 22.9193C41.2407 21.1499 40.1665 19.5423 38.8123 18.1881C37.4581 16.8339 35.8505 15.7597 34.0811 15.0268C32.3118 14.294 30.4154 13.9167 28.5003 13.9167ZM28.5003 40.1667C26.1929 40.1667 23.9373 39.4825 22.0187 38.2006C20.1001 36.9186 18.6048 35.0965 17.7217 32.9647C16.8387 30.8329 16.6077 28.4871 17.0578 26.224C17.508 23.9609 18.6191 21.8821 20.2508 20.2505C21.8824 18.6189 23.9612 17.5077 26.2243 17.0576C28.4874 16.6074 30.8332 16.8385 32.965 17.7215C35.0968 18.6045 36.9189 20.0999 38.2008 22.0184C39.4828 23.937 40.167 26.1926 40.167 28.5001C40.167 31.5943 38.9378 34.5617 36.7499 36.7497C34.562 38.9376 31.5945 40.1667 28.5003 40.1667Z" fill="#49AB3D"/>
</svg>
