<svg  viewBox="0 0 35 35" fill="none" xmlns="http://www.w3.org/2000/svg">
<rect x="-0.75" y="0.75" width="33.5" height="33.5" rx="16.75" transform="matrix(-1 0 0 1 33.5 0)" stroke="#BFBFBF" stroke-opacity="0.7" stroke-width="1.5"/>
<path fill-rule="evenodd" clip-rule="evenodd" d="M15.8896 11.617C16.0849 11.4217 16.4015 11.4217 16.5967 11.617L22.2579 17.2781C22.428 17.4482 22.4499 17.7104 22.3236 17.9042C22.305 17.9329 22.283 17.9601 22.2578 17.9853L16.5967 23.6465C16.4014 23.8417 16.0848 23.8417 15.8896 23.6465L15.326 23.0829C15.1308 22.8877 15.1308 22.5711 15.326 22.3758L20.0702 17.6317L15.3261 12.8876C15.1308 12.6924 15.1308 12.3758 15.3261 12.1805L15.8896 11.617Z" fill="#BFBFBF" fill-opacity="0.7"/>
</svg>
