<svg viewBox="0 0 45 45" fill="none" xmlns="http://www.w3.org/2000/svg">
<circle cx="22.5" cy="22.5" r="22.5" fill="#F69D37"/>
<path d="M13.374 14.7595L15.0142 13.1193L15.3332 11.4334L17.4289 10.0667L21.2558 9.15552L25.9483 9.65678L29.183 10.5224L29.5475 12.2992L30.9142 14.1216L31.552 15.8983L30.9142 18.5863L26.8139 20.6365H20.4813L13.6475 18.5863L13.374 14.7595Z" fill="white"/>
<path fill-rule="evenodd" clip-rule="evenodd" d="M12.4336 17.4942V18.0816L12.7512 18.5757L13.1893 18.2941L13.1895 18.295C12.7522 18.5772 12.753 18.5784 12.7538 18.5797L12.7564 18.5837L12.7617 18.5918L12.7728 18.6086C12.7805 18.62 12.7886 18.6319 12.7971 18.6442C12.8142 18.6687 12.8332 18.6949 12.8542 18.7227C12.8962 18.7782 12.9459 18.8396 13.0045 18.9059C13.0934 19.0064 13.2018 19.1169 13.3328 19.2339L15.5901 34.0179L15.6947 34.2575L17.5278 33.4576C15.6947 34.2575 15.696 34.2604 15.6973 34.2634L15.6999 34.2693L15.7052 34.2811L15.7162 34.3051C15.7237 34.3212 15.7316 34.3375 15.7399 34.354C15.7564 34.3871 15.7743 34.421 15.7939 34.4555C15.833 34.5247 15.8782 34.5959 15.93 34.6685C16.0342 34.8143 16.1623 34.9611 16.3176 35.1043C16.6288 35.3911 17.0332 35.6492 17.5476 35.8652C18.5556 36.2884 20.0681 36.5846 22.4049 36.5846C24.7496 36.5846 26.2817 36.2861 27.3058 35.8808C27.8251 35.6753 28.2272 35.437 28.5365 35.1857C28.6909 35.0602 28.8195 34.9335 28.9258 34.8099C28.9788 34.7482 29.0257 34.6879 29.0672 34.6297C29.0879 34.6006 29.1071 34.5722 29.125 34.5444C29.134 34.5305 29.1426 34.5168 29.1509 34.5033L29.163 34.4832L29.1689 34.4732L29.1718 34.4683C29.1733 34.4658 29.1747 34.4634 27.446 33.4576L29.1747 34.4634L29.3635 34.1389L31.7036 19.2513C31.8434 19.1278 31.9581 19.0113 32.0514 18.9059C32.11 18.8397 32.1598 18.7782 32.2017 18.7227C32.2227 18.695 32.2417 18.6687 32.2588 18.6442C32.2674 18.6319 32.2755 18.6201 32.2831 18.6087L32.2942 18.5919L32.2996 18.5837L32.3021 18.5797C32.303 18.5785 32.3038 18.5772 31.8551 18.2876L31.8552 18.2868L32.3047 18.5758L32.6224 18.0817V17.4942V14.6253V13.9036L32.1615 13.3482C31.6792 12.7669 31.1327 12.3341 30.6756 12.0303V11.7359V10.8831L30.0602 10.2927L28.6756 11.7359C30.0602 10.2927 30.0591 10.2917 30.0581 10.2906L30.0559 10.2885L30.0513 10.2842L30.0418 10.2752L30.0207 10.2557C30.0058 10.2421 29.9892 10.2273 29.9708 10.2113C29.934 10.1792 29.8902 10.1426 29.8389 10.1022C29.7362 10.0213 29.604 9.9255 29.4394 9.82081C29.1094 9.61101 28.6533 9.36835 28.0484 9.13868C26.8361 8.67842 25.0549 8.28101 22.528 8.28101C20.0002 8.28101 18.2001 8.67865 16.9725 9.13259C16.3602 9.35903 15.8972 9.59695 15.5634 9.80006C15.3969 9.90144 15.2634 9.99358 15.1603 10.0705C15.1088 10.1089 15.065 10.1435 15.0286 10.1734C15.0103 10.1883 14.994 10.2021 14.9794 10.2146L14.9588 10.2325L14.9496 10.2407L14.9452 10.2446L14.9431 10.2465C14.942 10.2474 14.941 10.2483 16.2778 11.7359L14.941 10.2483L14.2778 10.8443V11.7359V12.083C13.8517 12.3842 13.3356 12.8089 12.8856 13.359L12.4336 13.9115V14.6253V17.4942ZM14.4336 17.4942V14.6253C14.6788 14.3256 14.9648 14.0689 15.2373 13.8597C15.3818 13.9956 15.5503 14.1421 15.7411 14.2888C16.4402 14.8262 17.4872 15.4028 18.7759 15.4028V14.1028C17.881 14.1028 17.1082 13.7 16.5335 13.2582C16.4419 13.1877 16.3565 13.1172 16.2778 13.0486V11.7359C16.2778 11.7359 17.8967 10.281 22.528 10.281C27.1592 10.281 28.6756 11.7359 28.6756 11.7359V13.1927C28.6484 13.2145 28.6206 13.2363 28.5923 13.2582C28.0175 13.7 27.2448 14.1028 26.3498 14.1028V15.4028C27.6386 15.4028 28.6856 14.8262 29.3846 14.2888C29.5587 14.1549 29.7143 14.0212 29.85 13.8956C30.1119 14.0939 30.3828 14.3366 30.6224 14.6253V17.4942C30.6224 17.4942 29.3313 19.5024 22.528 19.5024C15.7246 19.5024 14.4336 17.4942 14.4336 17.4942ZM14.4336 17.4942L13.8093 17.8957L13.8092 17.8956L14.4336 17.4942ZM30.6224 17.4942L31.4314 18.0143L31.4313 18.0146C31.2181 17.8773 30.9527 17.7066 30.6224 17.4942ZM27.446 33.4576C27.446 33.4576 26.7903 34.5846 22.4049 34.5846C18.0196 34.5846 17.5278 33.4576 17.5278 33.4576L15.5494 20.5003C17.0428 21.0622 19.2524 21.5024 22.528 21.5024C25.7851 21.5024 27.9881 21.0672 29.4812 20.5098L27.446 33.4576ZM23.8438 27.228L26.4395 29.8237L25.0931 31.1701L22.4974 28.5744L19.9016 31.1702L18.5553 29.8238L21.1511 27.228L18.5553 24.6322L19.9016 23.2859L22.4974 25.8817L25.0931 23.286L26.4395 24.6323L23.8438 27.228Z" fill="#1A1A1A"/>
</svg>
