<svg viewBox="0 0 45 45" fill="none" xmlns="http://www.w3.org/2000/svg">
<g clip-path="url(#clip0_692_1783)">
<circle cx="22.5" cy="22.5" r="22.5" fill="#F69D37"/>
<path d="M15.7275 19.2297L23.0889 11.2551L24.7871 10.6416C26.533 11.2236 30.072 12.4064 30.2608 12.4819C30.4495 12.5574 32.5415 15.5333 33.5639 17.0118L34.2719 21.0227L28.3264 26.9683L25.1649 28.4783L21.2483 27.6289L17.8037 24.4202L15.7275 19.2297Z" fill="white"/>
<path fill-rule="evenodd" clip-rule="evenodd" d="M26.4897 11.8565C25.1972 11.4257 24.4891 11.6333 24.2042 11.9182C23.9193 12.2031 23.7117 12.9112 24.1426 14.2037C24.5512 15.4297 25.4581 16.8849 26.8032 18.23C28.1483 19.5751 29.6035 20.482 30.8294 20.8906C32.122 21.3215 32.8301 21.1139 33.115 20.829C33.3999 20.5441 33.6075 19.836 33.1766 18.5434C32.768 17.3175 31.8611 15.8623 30.516 14.5172C29.1709 13.1721 27.7157 12.2652 26.4897 11.8565ZM27.1539 9.86401C28.7499 10.396 30.4755 11.5063 32.0012 13.032C33.5268 14.5577 34.6372 16.2833 35.1692 17.8793C35.6751 19.397 35.7495 21.137 34.6261 22.2879L34.6263 22.288L28.1018 28.8125C28.0981 28.8163 28.0944 28.82 28.0906 28.8238C28.0879 28.8265 28.0852 28.8292 28.0825 28.8319L22.011 34.9033L22.0108 34.9031C21.9995 34.9147 21.9881 34.9263 21.9765 34.9379C20.826 36.0883 19.071 36.0167 17.5416 35.5069C15.9456 34.9749 14.2201 33.8645 12.6944 32.3389C11.1687 30.8132 10.0584 29.0876 9.52639 27.4916C9.01659 25.9622 8.94491 24.2072 10.0954 23.0567C10.1069 23.0452 10.1185 23.0338 10.1301 23.0226L10.1297 23.0222L22.745 10.4069L22.7452 10.4071C23.896 9.28364 25.6361 9.35807 27.1539 9.86401ZM22.7423 31.2018L24.5212 29.4229C24.052 29.3251 23.5987 29.1932 23.1925 29.0583C22.6141 28.8662 22.0689 28.6475 21.537 28.3747C21.9736 29.0906 22.3142 29.809 22.5455 30.503C22.6218 30.7318 22.6883 30.9656 22.7423 31.2018ZM26.612 27.3321L26.604 27.3401C26.3893 27.5457 25.568 27.5604 24.327 27.1483C23.1552 26.7591 21.751 25.8881 20.4481 24.5852C19.1452 23.2823 17.9029 21.5068 17.5137 20.335C17.0992 19.087 17.4917 18.6308 17.7007 18.4218L20.12 16.0024L20.1198 16.0024L21.9532 14.169C22.0073 14.4052 22.0737 14.6391 22.15 14.8679C22.682 16.4639 23.7924 18.1895 25.318 19.7152C26.8437 21.2408 28.5693 22.3511 30.1653 22.8832C30.3941 22.9594 30.628 23.0259 30.8641 23.0799L29.0329 24.9112C29.0329 24.9111 29.0329 24.9111 29.0329 24.9111L26.6136 27.3305L26.612 27.3321ZM13.8313 22.2909L15.1825 20.9397C15.1982 20.9924 15.2148 21.0453 15.2324 21.0982C15.4573 21.7755 15.8527 22.5411 16.3487 23.3134C15.7359 22.9637 15.1241 22.6857 14.5303 22.4877C14.3014 22.4114 14.0675 22.345 13.8313 22.2909ZM13.8661 24.4802C12.5735 24.0494 11.8654 24.257 11.5805 24.5419C11.2956 24.8268 11.0881 25.5349 11.5189 26.8274C11.9276 28.0534 12.8344 29.5086 14.1795 30.8537C15.5246 32.1988 16.9799 33.1057 18.2058 33.5143C19.4984 33.9452 20.2065 33.7376 20.4914 33.4527C20.7763 33.1678 20.9839 32.4597 20.553 31.1671C20.1444 29.9412 19.2375 28.486 17.8924 27.1409C16.5473 25.7958 15.092 24.8889 13.8661 24.4802Z" fill="black"/>
<path d="M10.0729 25.1238L15.2631 20.199L16.21 20.9188L18.1611 24.4988L22.5366 27.2454L25.5295 29.3668L21.4949 33.6287L18.3695 34.8978L13.1226 31.3557L10.0729 25.1238Z" fill="black"/>
<ellipse cx="28.7119" cy="16.2402" rx="1.8618" ry="0.924131" transform="rotate(45 28.7119 16.2402)" fill="black"/>
</g>
<defs>
<clipPath id="clip0_692_1783">
<rect width="45" height="45" fill="white"/>
</clipPath>
</defs>
</svg>
