<svg viewBox="0 0 45 45" fill="none" xmlns="http://www.w3.org/2000/svg">
<circle cx="22.5" cy="22.5" r="22.5" fill="#F69D37"/>
<path d="M15.5 31V11L24 10.5L24.5 17H30.5L31 31H15.5Z" fill="white"/>
<path d="M31.9265 16.7934C31.9137 16.756 31.9032 16.7199 31.888 16.6837C31.8327 16.5571 31.7553 16.4413 31.6593 16.3419L24.9926 9.34186C24.8932 9.24594 24.7774 9.16851 24.6508 9.1132C24.6158 9.09686 24.5785 9.08753 24.5411 9.0747C24.4435 9.04148 24.3419 9.02147 24.239 9.0152C24.2133 9.01286 24.1911 9.00003 24.1666 9.00003H16.5C15.2132 9.00003 14 10.0465 14 11.3334V30.6667C14 31.9535 15.2132 33 16.5 33H29.6667C30.9535 33 32 31.9535 32 30.6667V17.1667C32 17.1422 31.9872 17.12 31.9848 17.0944C31.9789 16.9919 31.9592 16.8907 31.9265 16.7934ZM28.5 16H25V12.5L28.5 16ZM16 31V11H23V16.8334C23 17.1428 23.1229 17.4395 23.3417 17.6583C23.5605 17.8771 23.8572 18 24.1666 18H30L30.0023 31H16Z" fill="black"/>
</svg>
