<svg  viewBox="0 0 45 45" fill="none" xmlns="http://www.w3.org/2000/svg">
<circle cx="22.5" cy="22.5" r="22.5" fill="#F69D37"/>
<g clip-path="url(#clip0_692_1785)">
<path d="M18.7883 11.245L21.8022 9.95341L23.4382 9.43675L26.9255 11.5894L28.174 14.9045V21.707L27.4421 23.6013L30.0253 24.8929L30.2837 26.7873L28.8198 28.2511L15.3011 27.9067L14.7412 26.3568L15.8607 24.3332L17.1092 22.9555L16.5065 18.5641V13.699L18.7883 11.245Z" fill="white"/>
<path d="M28.6876 29.25C32.2764 29.25 32.4676 24.0975 28.9464 22.7587C29.3514 21.8587 29.2501 22.005 29.2501 14.625C29.2501 13.1332 28.6575 11.7024 27.6026 10.6475C26.5477 9.59263 25.117 9 23.6251 9H21.3751C19.8833 9 18.4525 9.59263 17.3977 10.6475C16.3428 11.7024 15.7501 13.1332 15.7501 14.625C15.7501 22.05 15.6489 21.8587 16.0539 22.7587C12.5551 24.0862 12.6901 29.25 16.3126 29.25H21.3751V31.5H18.0001C17.5551 31.5 17.1201 31.632 16.7501 31.8792C16.3801 32.1264 16.0917 32.4778 15.9214 32.889C15.7511 33.3001 15.7065 33.7525 15.7934 34.189C15.8802 34.6254 16.0945 35.0263 16.4091 35.341C16.7238 35.6557 17.1247 35.87 17.5612 35.9568C17.9976 36.0436 18.45 35.999 18.8612 35.8287C19.2723 35.6584 19.6237 35.37 19.8709 35C20.1182 34.63 20.2501 34.195 20.2501 33.75H24.7501C24.7501 34.195 24.8821 34.63 25.1293 35C25.3766 35.37 25.728 35.6584 26.1391 35.8287C26.5502 35.999 27.0026 36.0436 27.4391 35.9568C27.8755 35.87 28.2764 35.6557 28.5911 35.341C28.9058 35.0263 29.1201 34.6254 29.2069 34.189C29.2937 33.7525 29.2492 33.3001 29.0789 32.889C28.9086 32.4778 28.6202 32.1264 28.2502 31.8792C27.8802 31.632 27.4451 31.5 27.0001 31.5H23.6251V29.25H28.6876ZM18.0001 14.625C18.0001 13.7299 18.3557 12.8714 18.9886 12.2385C19.6216 11.6056 20.48 11.25 21.3751 11.25H23.6251C24.5202 11.25 25.3787 11.6056 26.0116 12.2385C26.6445 12.8714 27.0001 13.7299 27.0001 14.625V21.375C27.0001 21.6734 26.8816 21.9595 26.6706 22.1705C26.4596 22.3815 26.1735 22.5 25.8751 22.5H19.1251C18.8268 22.5 18.5406 22.3815 18.3296 22.1705C18.1187 21.9595 18.0001 21.6734 18.0001 21.375V14.625ZM15.7501 26.4375C15.7501 25.9899 15.9279 25.5607 16.2444 25.2443C16.5609 24.9278 16.9901 24.75 17.4376 24.75H27.5626C29.2389 24.75 29.8126 27 28.6876 27C15.7501 27 15.7501 27.2362 15.7501 26.4375Z" fill="black"/>
</g>
<defs>
<clipPath id="clip0_692_1785">
<rect width="27" height="27" fill="white" transform="translate(9 9)"/>
</clipPath>
</defs>
</svg>
