<svg  viewBox="0 0 45 45" fill="none" xmlns="http://www.w3.org/2000/svg">
<g clip-path="url(#clip0_692_1794)">
<circle cx="22.5" cy="22.5" r="22.5" fill="#F69D37"/>
<path d="M32.5776 28.3742C34.0645 25.7988 34.3535 23.4114 33.5436 20.3932C33.3244 19.5791 32.4889 19.0967 31.6743 19.3139C30.8589 19.5323 30.3757 20.3692 30.5942 21.1846C31.1979 23.4334 31.0189 24.9676 29.9335 26.8476C28.8122 28.7897 27.0019 30.1789 24.836 30.7581C22.7431 31.3178 20.9423 31.1577 19.0881 30.2476L21.6872 29.55C22.5026 29.3315 22.985 28.496 22.7665 27.6806C22.548 26.8653 21.7125 26.3829 20.8971 26.6013L13.1667 28.6727L15.238 36.4031C15.347 36.8097 15.6107 37.1347 15.9491 37.3301C16.2875 37.5255 16.7008 37.5913 17.1074 37.4824C17.9228 37.2639 18.4052 36.4283 18.1867 35.613L17.4389 32.8262C20.0438 34.1856 22.7261 34.4827 25.6253 33.7081C28.5795 32.9176 31.048 31.0236 32.5776 28.3742Z" fill="black"/>
<path d="M15.3706 18.4871C16.4919 16.545 18.3022 15.1558 20.4689 14.5753C22.573 14.0115 24.3856 14.1784 26.2559 15.1066L23.5971 15.819C22.7817 16.0375 22.2993 16.8731 22.5178 17.6884C22.626 18.0964 22.8896 18.4214 23.2281 18.6168C23.5665 18.8122 23.9798 18.878 24.3864 18.769L32.1168 16.6977L30.0454 8.96731C29.827 8.15194 28.9914 7.66954 28.1761 7.88802C27.3607 8.1065 26.8783 8.94204 27.0968 9.75741L27.8293 12.4913C25.2332 11.1441 22.5615 10.8531 19.6788 11.6266C16.7246 12.417 14.2561 14.3111 12.7265 16.9605C11.2396 19.5359 10.9506 21.9233 11.7605 24.9415C11.8694 25.3482 12.1338 25.6718 12.4723 25.8672C12.8107 26.0626 13.224 26.1285 13.6306 26.0195C14.446 25.801 14.9292 24.9642 14.7107 24.1488C14.1062 21.9013 14.2852 20.3671 15.3706 18.4871Z" fill="black"/>
</g>
<defs>
<clipPath id="clip0_692_1794">
<rect width="45" height="45" fill="white"/>
</clipPath>
</defs>
</svg>
