<svg  viewBox="0 0 45 45" fill="none" xmlns="http://www.w3.org/2000/svg">
<circle cx="22.5" cy="22.5" r="22.5" fill="#F69D37"/>
<path d="M12.5 29.5L12 13.5H32L32.5 27L31.5 30H26.5L21.5 34L18.5 30.5L15 30L12.5 29.5Z" fill="white"/>
<path d="M13.3523 12C12.1722 12 11 13.1186 11 14.494V28.4607C11 29.8362 12.1722 30.9547 13.6136 30.9547H18.2624L22.5 35L26.7606 30.9547H31.3864C32.8278 30.9547 34 29.8362 34 28.4607V14.494C34 13.1186 32.8278 12 31.3864 12L13.3523 12ZM31.9091 28.9595H25.8794L22.5 32.1843L19.1206 28.9595H13.0909V13.9952H31.9091V28.9595Z" fill="black"/>
<path d="M16 18H29V20.3333H16V18ZM16 22.6667H25.1V25H16V22.6667Z" fill="black"/>
</svg>
