<svg  viewBox="0 0 172 124" fill="none" xmlns="http://www.w3.org/2000/svg">
<path fill-rule="evenodd" clip-rule="evenodd" d="M2 4C3.10457 4 4 3.10457 4 2C4 0.895431 3.10457 0 2 0C0.895431 0 0 0.895431 0 2C0 3.10457 0.895431 4 2 4ZM26 4C27.1046 4 28 3.10457 28 2C28 0.895431 27.1046 0 26 0C24.8954 0 24 0.895431 24 2C24 3.10457 24.8954 4 26 4ZM52 2C52 3.10457 51.1046 4 50 4C48.8954 4 48 3.10457 48 2C48 0.895431 48.8954 0 50 0C51.1046 0 52 0.895431 52 2ZM74 4C75.1046 4 76 3.10457 76 2C76 0.895431 75.1046 0 74 0C72.8954 0 72 0.895431 72 2C72 3.10457 72.8954 4 74 4ZM100 2C100 3.10457 99.1046 4 98 4C96.8954 4 96 3.10457 96 2C96 0.895431 96.8954 0 98 0C99.1046 0 100 0.895431 100 2ZM122 4C123.105 4 124 3.10457 124 2C124 0.895431 123.105 0 122 0C120.895 0 120 0.895431 120 2C120 3.10457 120.895 4 122 4ZM148 2C148 3.10457 147.105 4 146 4C144.895 4 144 3.10457 144 2C144 0.895431 144.895 0 146 0C147.105 0 148 0.895431 148 2ZM170 4C171.105 4 172 3.10457 172 2C172 0.895431 171.105 0 170 0C168.895 0 168 0.895431 168 2C168 3.10457 168.895 4 170 4ZM4 26C4 27.1046 3.10457 28 2 28C0.895431 28 0 27.1046 0 26C0 24.8954 0.895431 24 2 24C3.10457 24 4 24.8954 4 26ZM26 28C27.1046 28 28 27.1046 28 26C28 24.8954 27.1046 24 26 24C24.8954 24 24 24.8954 24 26C24 27.1046 24.8954 28 26 28ZM52 26C52 27.1046 51.1046 28 50 28C48.8954 28 48 27.1046 48 26C48 24.8954 48.8954 24 50 24C51.1046 24 52 24.8954 52 26ZM74 28C75.1046 28 76 27.1046 76 26C76 24.8954 75.1046 24 74 24C72.8954 24 72 24.8954 72 26C72 27.1046 72.8954 28 74 28ZM100 26C100 27.1046 99.1046 28 98 28C96.8954 28 96 27.1046 96 26C96 24.8954 96.8954 24 98 24C99.1046 24 100 24.8954 100 26ZM122 28C123.105 28 124 27.1046 124 26C124 24.8954 123.105 24 122 24C120.895 24 120 24.8954 120 26C120 27.1046 120.895 28 122 28ZM148 26C148 27.1046 147.105 28 146 28C144.895 28 144 27.1046 144 26C144 24.8954 144.895 24 146 24C147.105 24 148 24.8954 148 26ZM170 28C171.105 28 172 27.1046 172 26C172 24.8954 171.105 24 170 24C168.895 24 168 24.8954 168 26C168 27.1046 168.895 28 170 28ZM4 50C4 51.1046 3.10457 52 2 52C0.895431 52 0 51.1046 0 50C0 48.8954 0.895431 48 2 48C3.10457 48 4 48.8954 4 50ZM26 52C27.1046 52 28 51.1046 28 50C28 48.8954 27.1046 48 26 48C24.8954 48 24 48.8954 24 50C24 51.1046 24.8954 52 26 52ZM52 50C52 51.1046 51.1046 52 50 52C48.8954 52 48 51.1046 48 50C48 48.8954 48.8954 48 50 48C51.1046 48 52 48.8954 52 50ZM74 52C75.1046 52 76 51.1046 76 50C76 48.8954 75.1046 48 74 48C72.8954 48 72 48.8954 72 50C72 51.1046 72.8954 52 74 52ZM100 50C100 51.1046 99.1046 52 98 52C96.8954 52 96 51.1046 96 50C96 48.8954 96.8954 48 98 48C99.1046 48 100 48.8954 100 50ZM122 52C123.105 52 124 51.1046 124 50C124 48.8954 123.105 48 122 48C120.895 48 120 48.8954 120 50C120 51.1046 120.895 52 122 52ZM148 50C148 51.1046 147.105 52 146 52C144.895 52 144 51.1046 144 50C144 48.8954 144.895 48 146 48C147.105 48 148 48.8954 148 50ZM170 52C171.105 52 172 51.1046 172 50C172 48.8954 171.105 48 170 48C168.895 48 168 48.8954 168 50C168 51.1046 168.895 52 170 52ZM4 74C4 75.1046 3.10457 76 2 76C0.895431 76 0 75.1046 0 74C0 72.8954 0.895431 72 2 72C3.10457 72 4 72.8954 4 74ZM26 76C27.1046 76 28 75.1046 28 74C28 72.8954 27.1046 72 26 72C24.8954 72 24 72.8954 24 74C24 75.1046 24.8954 76 26 76ZM52 74C52 75.1046 51.1046 76 50 76C48.8954 76 48 75.1046 48 74C48 72.8954 48.8954 72 50 72C51.1046 72 52 72.8954 52 74ZM74 76C75.1046 76 76 75.1046 76 74C76 72.8954 75.1046 72 74 72C72.8954 72 72 72.8954 72 74C72 75.1046 72.8954 76 74 76ZM100 74C100 75.1046 99.1046 76 98 76C96.8954 76 96 75.1046 96 74C96 72.8954 96.8954 72 98 72C99.1046 72 100 72.8954 100 74ZM122 76C123.105 76 124 75.1046 124 74C124 72.8954 123.105 72 122 72C120.895 72 120 72.8954 120 74C120 75.1046 120.895 76 122 76ZM148 74C148 75.1046 147.105 76 146 76C144.895 76 144 75.1046 144 74C144 72.8954 144.895 72 146 72C147.105 72 148 72.8954 148 74ZM170 76C171.105 76 172 75.1046 172 74C172 72.8954 171.105 72 170 72C168.895 72 168 72.8954 168 74C168 75.1046 168.895 76 170 76ZM4 98C4 99.1046 3.10457 100 2 100C0.895431 100 0 99.1046 0 98C0 96.8954 0.895431 96 2 96C3.10457 96 4 96.8954 4 98ZM26 100C27.1046 100 28 99.1046 28 98C28 96.8954 27.1046 96 26 96C24.8954 96 24 96.8954 24 98C24 99.1046 24.8954 100 26 100ZM52 98C52 99.1046 51.1046 100 50 100C48.8954 100 48 99.1046 48 98C48 96.8954 48.8954 96 50 96C51.1046 96 52 96.8954 52 98ZM74 100C75.1046 100 76 99.1046 76 98C76 96.8954 75.1046 96 74 96C72.8954 96 72 96.8954 72 98C72 99.1046 72.8954 100 74 100ZM100 98C100 99.1046 99.1046 100 98 100C96.8954 100 96 99.1046 96 98C96 96.8954 96.8954 96 98 96C99.1046 96 100 96.8954 100 98ZM122 100C123.105 100 124 99.1046 124 98C124 96.8954 123.105 96 122 96C120.895 96 120 96.8954 120 98C120 99.1046 120.895 100 122 100ZM148 98C148 99.1046 147.105 100 146 100C144.895 100 144 99.1046 144 98C144 96.8954 144.895 96 146 96C147.105 96 148 96.8954 148 98ZM170 100C171.105 100 172 99.1046 172 98C172 96.8954 171.105 96 170 96C168.895 96 168 96.8954 168 98C168 99.1046 168.895 100 170 100ZM4 122C4 123.105 3.10457 124 2 124C0.895431 124 0 123.105 0 122C0 120.895 0.895431 120 2 120C3.10457 120 4 120.895 4 122ZM26 124C27.1046 124 28 123.105 28 122C28 120.895 27.1046 120 26 120C24.8954 120 24 120.895 24 122C24 123.105 24.8954 124 26 124ZM52 122C52 123.105 51.1046 124 50 124C48.8954 124 48 123.105 48 122C48 120.895 48.8954 120 50 120C51.1046 120 52 120.895 52 122ZM74 124C75.1046 124 76 123.105 76 122C76 120.895 75.1046 120 74 120C72.8954 120 72 120.895 72 122C72 123.105 72.8954 124 74 124ZM100 122C100 123.105 99.1046 124 98 124C96.8954 124 96 123.105 96 122C96 120.895 96.8954 120 98 120C99.1046 120 100 120.895 100 122ZM122 124C123.105 124 124 123.105 124 122C124 120.895 123.105 120 122 120C120.895 120 120 120.895 120 122C120 123.105 120.895 124 122 124ZM148 122C148 123.105 147.105 124 146 124C144.895 124 144 123.105 144 122C144 120.895 144.895 120 146 120C147.105 120 148 120.895 148 122ZM170 124C171.105 124 172 123.105 172 122C172 120.895 171.105 120 170 120C168.895 120 168 120.895 168 122C168 123.105 168.895 124 170 124Z" fill="#F57B20" fill-opacity="0.5"/>
</svg>
